<?xml version="1.0" encoding="UTF-8"?><svg id="a" xmlns="http://www.w3.org/2000/svg" viewBox="0 0 600.05 78.8"><rect x="5.72" y="6.46" width="27.6" height="27.6" transform="translate(-8.61 19.73) rotate(-45)" fill="#fff"/><polygon points="38.95 20.3 58.45 39.8 77.95 20.3 58.45 .8 38.95 20.3" fill="#fff"/><polygon points="38.95 59.3 58.45 78.8 77.95 59.3 58.45 39.8 38.95 59.3" fill="#fff"/><polygon points="77.95 20.3 97.45 39.8 116.95 20.3 97.45 .8 77.95 20.3" fill="#fff"/><polygon points="170.45 .6 170.45 16.4 194.25 16.4 194.25 78.5 211.35 78.5 211.35 16.4 235.05 16.4 235.05 .6 170.45 .6" fill="#fff"/><rect x="271.25" y=".6" width="17.1" height="77.9" fill="#fff"/><g><path d="M360.45,78.5h-30.4V.6h30.4c24.5,0,41.4,16.8,41.4,38.7v.2c0,22-16.9,39-41.4,39m23.5-39c0-13.8-9.5-23.5-23.5-23.5h-13.2V63h13.2c14,0,23.5-9.5,23.5-23.3v-.2Z" fill="#fff"/><path d="M491.85,78.5l-7.1-17.5h-32.9l-7.1,17.5h-17.5L460.65,0h15.8l33.4,78.5h-18Zm-23.6-57.9l-10.4,25.3h20.7l-10.3-25.3Z" fill="#fff"/><polygon points="544.05 78.5 544.05 .6 561.15 .6 561.15 62.9 600.05 62.9 600.05 78.5 544.05 78.5" fill="#fff"/></g></svg>